<svg width="400" height="200" viewBox="0 0 400 200" fill="none" xmlns="http://www.w3.org/2000/svg">
<path d="M31.65 42.0625H90.975C108.387 42.2 121 47.1875 128.825 57.0375C136.637 66.875 139.225 80.3125 136.575 97.3375C135.489 105.286 133.169 113.017 129.7 120.25C126.312 127.75 121.587 134.5 115.537 140.513C108.162 148.138 100.275 153 91.8625 155.05C83.3096 157.124 74.5382 158.16 65.7375 158.138H39.175L30.7625 199.988H0L31.65 42.0625ZM57.55 67.1625L44.25 133.25C45.1375 133.388 46.025 133.462 46.9125 133.462H50.0125C64.175 133.612 75.9875 132.212 85.425 129.275C94.875 126.2 101.212 115.475 104.462 97.125C107.112 81.7 104.462 72.825 96.4875 70.475C88.675 68.125 78.8625 67.025 67.05 67.1625C65.358 67.3072 63.6607 67.3823 61.9625 67.3875H57.3125L57.5375 67.1625H57.55ZM171.625 0H202.175L193.537 42.075H220.988C236.038 42.3625 247.25 45.45 254.625 51.325C262.15 57.2 264.375 68.35 261.275 84.8L246.437 158.15H215.45L229.612 88.1C231.087 80.7625 230.65 75.55 228.287 72.475C225.925 69.3875 220.837 67.85 213.012 67.85L188.45 67.625L170.3 158.15H139.75L171.625 0ZM294.075 42.0625H353.387C370.8 42.2 383.425 47.1875 391.237 57.0375C399.062 66.875 401.65 80.3125 398.987 97.3375C397.906 105.286 395.591 113.016 392.125 120.25C388.737 127.75 384.012 134.5 377.962 140.513C370.587 148.138 362.687 153 354.275 155.05C345.722 157.124 336.951 158.16 328.15 158.138H301.6L293.188 199.988H262.425L294.075 42.0625ZM319.975 67.1625L306.687 133.25C307.575 133.388 308.462 133.462 309.35 133.462H312.45C326.612 133.612 338.412 132.212 347.862 129.275C357.3 126.2 363.65 115.475 366.9 97.125C369.55 81.7 366.9 72.825 358.925 70.475C351.112 68.125 341.3 67.025 329.487 67.1625C327.795 67.3072 326.098 67.3823 324.4 67.3875H319.75L319.975 67.1625Z" fill="#fff"/>
</svg>
